<svg width="16" height="16" viewBox="0 0 16 16" fill="none" xmlns="http://www.w3.org/2000/svg">
<path d="M8 2C6.80653 2 5.66193 2.47411 4.81802 3.31802C3.97411 4.16193 3.5 5.30653 3.5 6.5V8.9015L2.5355 11.3145C2.50519 11.3904 2.49393 11.4725 2.50272 11.5538C2.5115 11.635 2.54006 11.7128 2.58589 11.7805C2.63173 11.8481 2.69344 11.9035 2.76563 11.9418C2.83782 11.98 2.91829 12 3 12H6C6 13.1085 6.8915 14 8 14C9.1085 14 10 13.1085 10 12H13C13.0817 12 13.1622 11.98 13.2344 11.9418C13.3066 11.9035 13.3683 11.8481 13.4141 11.7805C13.4599 11.7128 13.4885 11.635 13.4973 11.5538C13.5061 11.4725 13.4948 11.3904 13.4645 11.3145L12.5 8.9015V6.5C12.5 5.30653 12.0259 4.16193 11.182 3.31802C10.3381 2.47411 9.19347 2 8 2ZM9 12C9 12.556 8.556 13 8 13C7.444 13 7 12.556 7 12H9ZM4.5 6.5C4.5 5.57174 4.86875 4.6815 5.52513 4.02513C6.1815 3.36875 7.07174 3 8 3C8.92826 3 9.8185 3.36875 10.4749 4.02513C11.1313 4.6815 11.5 5.57174 11.5 6.5V8.9975C11.4999 9.06103 11.512 9.12398 11.5355 9.183L12.2615 11H3.7385L4.4645 9.183C4.48795 9.12414 4.5 9.06136 4.5 8.998V6.5Z" fill="#9BA09D"/>
</svg>
