<svg width="16" height="16" viewBox="0 0 16 16" fill="none" xmlns="http://www.w3.org/2000/svg">
<path d="M3.71401 5.25799C3.52301 3.99999 4.41001 2.87 5.76501 2.456C6.00547 2.38297 6.2647 2.40413 6.49014 2.51518C6.71558 2.62623 6.89035 2.81885 6.97901 3.05399L7.41401 4.214C7.48404 4.40061 7.4967 4.60389 7.45037 4.79775C7.40404 4.99161 7.30084 5.16721 7.15401 5.302L5.86001 6.487C5.79614 6.54547 5.74856 6.61953 5.72192 6.70191C5.69527 6.7843 5.69048 6.8722 5.70801 6.957L5.72001 7.009L5.75101 7.139C5.91234 7.77051 6.15752 8.37757 6.48001 8.944C6.83213 9.54541 7.26856 10.0933 7.77601 10.571L7.81601 10.607C7.88061 10.6643 7.95896 10.704 8.04344 10.722C8.12791 10.7401 8.21561 10.7359 8.29801 10.71L9.97101 10.183C10.1611 10.1233 10.3648 10.1218 10.5558 10.1786C10.7468 10.2354 10.9164 10.3481 11.043 10.502L11.835 11.463C12.165 11.863 12.125 12.451 11.746 12.804C10.709 13.771 9.28301 13.969 8.29101 13.172C7.07453 12.1917 6.04936 10.9953 5.26701 9.64299C4.477 8.29246 3.95072 6.80461 3.71401 5.25799ZM6.75601 7.02299L7.82801 6.039C8.12185 5.76953 8.32844 5.4184 8.42128 5.03067C8.51411 4.64294 8.48894 4.23632 8.34901 3.86299L7.91501 2.703C7.73696 2.22977 7.38545 1.84206 6.93189 1.61862C6.47832 1.39518 5.95671 1.35277 5.47301 1.5C3.79001 2.01499 2.43901 3.52399 2.72501 5.40899C2.92501 6.72499 3.38601 8.399 4.40301 10.147C5.24712 11.6051 6.35296 12.895 7.66501 13.952C9.15301 15.147 11.139 14.739 12.429 13.537C12.7981 13.1933 13.0222 12.7217 13.0554 12.2185C13.0887 11.7152 12.9287 11.2183 12.608 10.829L11.816 9.86699C11.5626 9.55948 11.2232 9.33464 10.8412 9.22133C10.4592 9.10801 10.0521 9.11138 9.67201 9.231L8.28301 9.668C7.92435 9.29825 7.61021 8.88779 7.34701 8.44499C7.09302 7.99721 6.89488 7.51999 6.75701 7.024" fill="#9BA09D"/>
</svg>
