<svg width="24" height="24" viewBox="0 0 24 24" fill="none" xmlns="http://www.w3.org/2000/svg">
<path d="M18.63 7.15C18.67 7.76 18.62 8.45 18.5 9.22L17.77 13.91C17.15 17.82 15.34 19.14 11.43 18.53L6.73999 17.79C5.38999 17.58 4.34999 17.22 3.58999 16.68C2.13999 15.67 1.71999 14.01 2.11999 11.45L2.85999 6.76C3.47999 2.85 5.28999 1.53 9.19999 2.14L13.89 2.88C17.03 3.37 18.5 4.65 18.63 7.15Z" stroke="#E60023" stroke-width="1.5" stroke-linecap="round" stroke-linejoin="round"/>
<path d="M20.5001 13.47L19.0001 17.98C17.7501 21.74 15.7501 22.74 11.9901 21.49L7.48009 19.99C5.21009 19.24 3.95009 18.2 3.59009 16.68C4.35009 17.22 5.39009 17.58 6.74009 17.79L11.4301 18.53C15.3401 19.14 17.1501 17.82 17.7701 13.91L18.5001 9.22C18.6201 8.45 18.6701 7.76 18.6301 7.15C21.0201 8.42 21.5401 10.34 20.5001 13.47Z" stroke="#E60023" stroke-width="1.5" stroke-linecap="round" stroke-linejoin="round"/>
<path d="M8.24 8.98C9.20098 8.98 9.98 8.20098 9.98 7.24C9.98 6.27902 9.20098 5.5 8.24 5.5C7.27902 5.5 6.5 6.27902 6.5 7.24C6.5 8.20098 7.27902 8.98 8.24 8.98Z" stroke="#E60023" stroke-width="1.5" stroke-linecap="round" stroke-linejoin="round"/>
</svg>
