<svg width="16" height="16" viewBox="0 0 16 16" fill="none" xmlns="http://www.w3.org/2000/svg">
<path d="M10.5 10C10.3674 10 10.2402 10.0527 10.1464 10.1464C10.0527 10.2402 10 10.3674 10 10.5C10 10.6326 10.0527 10.7598 10.1464 10.8536C10.2402 10.9473 10.3674 11 10.5 11H12.5C12.6326 11 12.7598 10.9473 12.8536 10.8536C12.9473 10.7598 13 10.6326 13 10.5C13 10.3674 12.9473 10.2402 12.8536 10.1464C12.7598 10.0527 12.6326 10 12.5 10H10.5ZM1 5.5C1 4.83696 1.26339 4.20107 1.73223 3.73223C2.20107 3.26339 2.83696 3 3.5 3H12.5C13.163 3 13.7989 3.26339 14.2678 3.73223C14.7366 4.20107 15 4.83696 15 5.5V10.5C15 11.163 14.7366 11.7989 14.2678 12.2678C13.7989 12.7366 13.163 13 12.5 13H3.5C2.83696 13 2.20107 12.7366 1.73223 12.2678C1.26339 11.7989 1 11.163 1 10.5V5.5ZM14 6V5.5C14 5.10218 13.842 4.72064 13.5607 4.43934C13.2794 4.15804 12.8978 4 12.5 4H3.5C3.10218 4 2.72064 4.15804 2.43934 4.43934C2.15804 4.72064 2 5.10218 2 5.5V6H14ZM2 7V10.5C2 10.8978 2.15804 11.2794 2.43934 11.5607C2.72064 11.842 3.10218 12 3.5 12H12.5C12.8978 12 13.2794 11.842 13.5607 11.5607C13.842 11.2794 14 10.8978 14 10.5V7H2Z" fill="#9BA09D"/>
</svg>
