<svg width="24" height="24" viewBox="0 0 24 24" fill="none" xmlns="http://www.w3.org/2000/svg">
<path d="M20.35 8.92299L19.984 8.71899L19.871 8.65499C19.5984 8.49137 19.3687 8.26512 19.201 7.99499C19.183 7.96799 19.167 7.93899 19.135 7.88299C18.9194 7.53692 18.8147 7.13322 18.835 6.72599L18.841 6.30099C18.853 5.62099 18.859 5.27899 18.763 4.97299C18.6781 4.70073 18.5359 4.44978 18.346 4.23699C18.132 3.99699 17.835 3.82499 17.24 3.48299L16.746 3.19799C16.154 2.85699 15.857 2.68599 15.542 2.62099C15.2637 2.5634 14.9763 2.56579 14.699 2.62799C14.386 2.69799 14.093 2.87399 13.508 3.22399L13.505 3.22599L13.151 3.43699C13.095 3.47099 13.066 3.48699 13.038 3.50299C12.76 3.65799 12.45 3.74299 12.131 3.75299C12.099 3.75499 12.066 3.75499 12.001 3.75499L11.871 3.75399C11.5519 3.74382 11.2399 3.65742 10.961 3.50199C10.933 3.48699 10.906 3.46999 10.85 3.43599L10.493 3.22199C9.90399 2.86799 9.60899 2.69199 9.29399 2.62099C9.01564 2.55868 8.72719 2.55664 8.44799 2.61499C8.13199 2.68099 7.83599 2.85299 7.24299 3.19699L7.23999 3.19799L6.75199 3.48099L6.74699 3.48499C6.15899 3.82499 5.86399 3.99699 5.65199 4.23599C5.46307 4.44838 5.32159 4.69861 5.23699 4.96999C5.14199 5.27699 5.14699 5.61899 5.15899 6.30299L5.16599 6.72699C5.16599 6.79199 5.16899 6.82399 5.16799 6.85499C5.16281 7.21831 5.05875 7.57335 4.86699 7.88199C4.83399 7.93799 4.81899 7.96599 4.80199 7.99199C4.63338 8.26416 4.40189 8.49187 4.12699 8.65599L4.01499 8.71899L3.65399 8.91899C3.05199 9.25199 2.75099 9.41899 2.53299 9.65699C2.33917 9.86682 2.19255 10.1157 2.10299 10.387C2.00299 10.694 2.00299 11.037 2.00399 11.725L2.00599 12.288C2.00699 12.971 2.00899 13.312 2.10999 13.617C2.19917 13.8866 2.34473 14.134 2.53699 14.343C2.75499 14.579 3.05299 14.745 3.64999 15.077L4.00799 15.276C4.06899 15.31 4.09999 15.326 4.12899 15.344C4.44236 15.5318 4.69829 15.8019 4.86899 16.125L4.93599 16.245C5.1049 16.5639 5.18437 16.9226 5.16599 17.283L5.15899 17.69C5.14699 18.376 5.14199 18.72 5.23799 19.027C5.32299 19.299 5.46499 19.55 5.65499 19.763C5.86899 20.003 6.16699 20.174 6.76099 20.517L7.25499 20.802C7.84799 21.143 8.14399 21.314 8.45899 21.379C8.73729 21.4366 9.02468 21.4342 9.30199 21.372C9.61599 21.302 9.90899 21.126 10.496 20.774L10.85 20.562L10.963 20.496C11.241 20.342 11.551 20.256 11.87 20.246L12 20.245H12.13C12.448 20.255 12.76 20.342 13.04 20.497L13.132 20.552L13.508 20.778C14.098 21.132 14.392 21.308 14.707 21.378C14.9852 21.441 15.2736 21.4437 15.553 21.386C15.868 21.32 16.166 21.147 16.759 20.803L17.254 20.516C17.842 20.174 18.137 20.003 18.349 19.764C18.539 19.551 18.679 19.301 18.764 19.03C18.859 18.725 18.854 18.386 18.842 17.712L18.834 17.272V17.145C18.8387 16.7814 18.9424 16.426 19.134 16.117L19.199 16.007C19.3676 15.7348 19.5991 15.5071 19.874 15.343L19.984 15.282L19.986 15.281L20.347 15.081C20.949 14.747 21.25 14.581 21.469 14.343C21.663 14.133 21.809 13.883 21.898 13.613C21.998 13.308 21.998 12.966 21.996 12.286L21.994 11.712C21.993 11.029 21.992 10.687 21.891 10.382C21.8014 10.1127 21.6555 9.86555 21.463 9.65699C21.246 9.42099 20.948 9.25499 20.352 8.92399L20.35 8.92299Z" stroke="#9BA09D" stroke-width="2" stroke-linecap="round" stroke-linejoin="round"/>
<path d="M8 12C8 13.0609 8.42143 14.0783 9.17157 14.8284C9.92172 15.5786 10.9391 16 12 16C13.0609 16 14.0783 15.5786 14.8284 14.8284C15.5786 14.0783 16 13.0609 16 12C16 10.9391 15.5786 9.92172 14.8284 9.17157C14.0783 8.42143 13.0609 8 12 8C10.9391 8 9.92172 8.42143 9.17157 9.17157C8.42143 9.92172 8 10.9391 8 12Z" stroke="#9BA09D" stroke-width="2" stroke-linecap="round" stroke-linejoin="round"/>
</svg>
