<svg width="24" height="24" viewBox="0 0 24 24" fill="none" xmlns="http://www.w3.org/2000/svg">
<path d="M12 22L11.75 19H11.5C9.13333 19 7.125 18.175 5.475 16.525C3.825 14.875 3 12.8667 3 10.5C3 8.13333 3.825 6.125 5.475 4.475C7.125 2.825 9.13333 2 11.5 2C12.6833 2 13.7877 2.22067 14.813 2.662C15.8383 3.10333 16.7383 3.71167 17.513 4.487C18.2877 5.26233 18.8957 6.16233 19.337 7.187C19.7783 8.21167 19.9993 9.316 20 10.5C20 11.75 19.796 12.95 19.388 14.1C18.98 15.25 18.4213 16.3167 17.712 17.3C17.0027 18.2833 16.161 19.175 15.187 19.975C14.213 20.775 13.1507 21.45 12 22ZM14 18.35C15.1833 17.35 16.146 16.1793 16.888 14.838C17.63 13.4967 18.0007 12.0507 18 10.5C18 8.68333 17.3707 7.146 16.112 5.888C14.8533 4.63 13.316 4.00067 11.5 4C9.684 3.99933 8.14667 4.62867 6.888 5.888C5.62933 7.14733 5 8.68467 5 10.5C5 12.3153 5.62933 13.853 6.888 15.113C8.14667 16.373 9.684 17.002 11.5 17H14V18.35ZM11.475 15.975C11.7583 15.975 12 15.875 12.2 15.675C12.4 15.475 12.5 15.2333 12.5 14.95C12.5 14.6667 12.4 14.425 12.2 14.225C12 14.025 11.7583 13.925 11.475 13.925C11.1917 13.925 10.95 14.025 10.75 14.225C10.55 14.425 10.45 14.6667 10.45 14.95C10.45 15.2333 10.55 15.475 10.75 15.675C10.95 15.875 11.1917 15.975 11.475 15.975ZM10.75 12.8H12.25C12.25 12.3 12.3 11.95 12.4 11.75C12.5 11.55 12.8167 11.1833 13.35 10.65C13.65 10.35 13.9 10.025 14.1 9.675C14.3 9.325 14.4 8.95 14.4 8.55C14.4 7.7 14.1127 7.06267 13.538 6.638C12.9633 6.21333 12.284 6.00067 11.5 6C10.7667 6 10.15 6.20433 9.65 6.613C9.15 7.02167 8.8 7.51733 8.6 8.1L10 8.65C10.0833 8.36667 10.2417 8.08767 10.475 7.813C10.7083 7.53833 11.05 7.40067 11.5 7.4C11.95 7.39933 12.2877 7.52433 12.513 7.775C12.7383 8.02567 12.8507 8.30067 12.85 8.6C12.85 8.88333 12.7667 9.13767 12.6 9.363C12.4333 9.58833 12.2333 9.81733 12 10.05C11.4167 10.55 11.0627 10.946 10.938 11.238C10.8133 11.53 10.7507 12.0507 10.75 12.8Z" fill="#29025F"/>
</svg>
