<svg width="24" height="24" viewBox="0 0 24 24" fill="none" xmlns="http://www.w3.org/2000/svg">
<path d="M12 15C13.6569 15 15 13.6569 15 12C15 10.3431 13.6569 9 12 9C10.3431 9 9 10.3431 9 12C9 13.6569 10.3431 15 12 15Z" stroke="#29025F" stroke-width="2"/>
<path d="M20.188 10.934C20.576 11.406 20.77 11.641 20.77 12C20.77 12.359 20.576 12.594 20.188 13.066C18.768 14.79 15.636 18 12 18C8.36401 18 5.23201 14.79 3.81201 13.066C3.42401 12.594 3.23001 12.359 3.23001 12C3.23001 11.641 3.42401 11.406 3.81201 10.934C5.23201 9.21 8.36401 6 12 6C15.636 6 18.768 9.21 20.188 10.934Z" stroke="#29025F" stroke-width="2"/>
</svg>
